<svg version="1.1" viewBox="0 0 285 419" xmlns="http://www.w3.org/2000/svg">
    <g fill-rule="evenodd">
        <polygon points="141.5 225.15 128.22 281.54 125.86 223.66 102.15 276.51 110.78 219.23 77.499 266.64 96.816 212.03 55.162 252.29 84.465 202.32 35.944 233.96 74.175 190.44 20.542 212.34 66.319 176.83 9.5117 188.18 61.18 161.99 3.2516 162.38 58.944 146.43 1.9882 135.85 59.691 130.74 5.7671 109.57 63.396 115.47 14.452 84.479 69.923 101.18 27.728 61.483 79.037 88.376 45.117 41.416 90.409 77.533 65.989 25.002 103.63 69.038 89.59 12.835 118.21 63.198 115.07 5.354 133.64 60.224 141.5 2.83 149.36 60.224 167.93 5.354 164.79 63.198 193.41 12.835 179.37 69.038 217.01 25.002 192.59 77.533 237.88 41.416 203.96 88.376 255.27 61.483 213.08 101.18 268.55 84.479 219.6 115.47 277.23 109.57 223.31 130.74 281.01 135.85 224.06 146.43 279.75 162.38 221.82 161.99 273.49 188.18 216.68 176.83 262.46 212.34 208.82 190.44 247.06 233.96 198.53 202.32 227.84 252.29 186.18 212.03 205.5 266.64 172.22 219.23 180.85 276.51 157.14 223.66 154.78 281.54" fill-rule="nonzero"/>
        <path d="m163 73c7.1797 0 13 5.8203 13 13v314c0 7.1797-5.8203 13-13 13h-43c-7.1797 0-13-5.8203-13-13v-314c0-7.1797 5.8203-13 13-13h43zm0 8h-43c-2.7614 0-5 2.2386-5 5v314c0 2.7614 2.2386 5 5 5h43c2.7614 0 5-2.2386 5-5v-314c0-2.7614-2.2386-5-5-5z" fill="#fff" fill-rule="nonzero"/>
        <path d="m163 77c4.9706 0 9 4.0294 9 9v314c0 4.9706-4.0294 9-9 9h-43c-4.9706 0-9-4.0294-9-9v-314c0-4.9706 4.0294-9 9-9h43zm-7 76h-1v228h1v-228z" stroke="#fff" stroke-width="8"/>
        <path d="m179.53 83c1.7037 0 3.3949 0.29024 5.0012 0.85828l73.169 25.876c7.8103 2.7621 11.903 11.333 9.1406 19.143-1.5261 4.3154-4.9392 7.6979-9.2682 9.185l-73.132 25.124c-1.5684 0.5388-3.2152 0.81379-4.8736 0.81379h-126.56c-8.2843 0-15-6.7157-15-15v-51c0-8.2843 6.7157-15 15-15h126.53zm0 7h-126.53c-4.4183 0-8 3.5817-8 8v51c0 4.4183 3.5817 8 8 8h126.56c0.88444 0 1.7628-0.14666 2.5992-0.43402l73.132-25.124c2.3088-0.79317 4.1291-2.5971 4.943-4.8987 1.4731-4.1655-0.7095-8.7364-4.875-10.21l-73.169-25.876c-0.85665-0.30295-1.7586-0.45775-2.6673-0.45775z" fill="#fff" fill-rule="nonzero"/>
        <path d="m179.53 86.5c1.3062 0 2.6028 0.22252 3.8342 0.65801l73.169 25.876c5.9879 2.1176 9.1253 8.6883 7.0078 14.676-1.17 3.3085-3.7867 5.9017-7.1056 7.0419l-73.132 25.124c-1.2024 0.41308-2.465 0.62391-3.7364 0.62391h-126.56c-6.3513 0-11.5-5.1487-11.5-11.5v-51c0-6.3513 5.1487-11.5 11.5-11.5h126.53zm69.616 36.992c0.34612 0.24498 0.64628 0.4796 0.89886 0.70266 0.38404 0.33913 0.54777 0.55093 0.53708 0.52077-0.15992-0.45114-0.071332-1.0795 0.22507-1.4808 0.027371-0.037059-0.044256 0.00658-0.34719 0.087134-0.34089 0.090648-0.78084 0.14939-1.3138 0.17021zm-60.613-19.295c-13.864-4.5815-23.537-6.7911-31.195-6.7911h-98.229l-0.23561-0.0018609c-1.0647-0.016176-1.8483-0.16027-2.222-0.32839 0.064152 0.042595 0.15518 0.11782 0.28157 0.26442 0.36038 0.41801 0.59922 1.031 0.56741 1.7335-0.030396 0.6712-0.29472 1.2168-0.64191 1.5743-0.13358 0.13755-0.19896 0.17932-0.18741 0.17446 0.43274-0.18219 1.2801-0.32177 2.438-0.32177h105.04c4.5254 0 13.646 1.4308 24.387 3.6964zm-131.88-7.1213c-0.0030604-0.0013766-0.0060933-0.0027547-0.0090987-0.0041344 0.006046 0.0027756 0.014889 0.0077992 0.026399 0.015477z" stroke="#fff" stroke-width="7"/>
    </g>
</svg>
